<svg width="105" height="26" viewBox="0 0 105 26" fill="none" xmlns="http://www.w3.org/2000/svg">
<path d="M105 0V26H99.5417L86.5382 9.63574H86.3193V26H80V0H85.5458L98.4472 16.3516H98.7099V0H105Z" fill="#FFD3E3"/>
<path d="M31 25.9012V0H76.4529V4.515H36.4762V10.6868H75.555V15.2018H36.4762V21.3862H76.5035V25.9012H31Z" fill="#FFD3E3"/>
<path d="M12.9236 26H0V0H13.0139C16.1134 0 18.7816 0.520508 21.0185 1.56152C23.2554 2.59407 24.9757 4.07943 26.1794 6.01758C27.3931 7.95573 28 10.2747 28 12.9746C28 15.6829 27.3931 18.0104 26.1794 19.957C24.9757 21.9036 23.2454 23.3975 20.9884 24.4385C18.7415 25.4795 16.0532 26 12.9236 26ZM6.51505 21.29H12.6528C14.5787 21.29 16.1987 21.0023 17.5127 20.4268C18.8368 19.8428 19.8299 18.9414 20.4919 17.7227C21.164 16.4954 21.5 14.9128 21.5 12.9746C21.5 11.0534 21.164 9.4834 20.4919 8.26465C19.8299 7.0459 18.8418 6.14876 17.5278 5.57324C16.2137 4.99772 14.5937 4.70996 12.6678 4.70996H6.51505V21.29Z" fill="#FFD3E3"/>
</svg>
